<svg width="48" height="48" viewBox="0 0 48 48" fill="none" xmlns="http://www.w3.org/2000/svg">
  <defs>
    <linearGradient id="fg" x1="0" y1="0" x2="48" y2="48" gradientUnits="userSpaceOnUse">
      <stop offset="0%" stop-color="#C4704B"/>
      <stop offset="100%" stop-color="#D4A04A"/>
    </linearGradient>
    <linearGradient id="bg" x1="10" y1="10" x2="38" y2="38" gradientUnits="userSpaceOnUse">
      <stop offset="0%" stop-color="#C4704B" stop-opacity="0.15"/>
      <stop offset="100%" stop-color="#D4A04A" stop-opacity="0.08"/>
    </linearGradient>
  </defs>
  <rect x="2" y="2" width="44" height="44" rx="14" fill="url(#bg)" stroke="url(#fg)" stroke-width="1.5"/>
  <g stroke="url(#fg)" stroke-width="1" stroke-linecap="round" opacity="0.4">
    <line x1="14" y1="15" x2="24" y2="21"/><line x1="34" y1="15" x2="24" y2="21"/>
    <line x1="24" y1="21" x2="24" y2="30"/><line x1="24" y1="30" x2="14" y2="35"/>
    <line x1="24" y1="30" x2="34" y2="35"/><line x1="14" y1="15" x2="34" y2="35"/>
    <line x1="34" y1="15" x2="14" y2="35"/>
  </g>
  <circle cx="14" cy="15" r="3.5" fill="#C4704B"/>
  <circle cx="34" cy="15" r="3.5" fill="#D4A04A"/>
  <circle cx="24" cy="21" r="4.5" fill="url(#fg)"/>
  <circle cx="24" cy="30" r="4" fill="url(#fg)"/>
  <circle cx="14" cy="35" r="3" fill="#7A9E7E"/>
  <circle cx="34" cy="35" r="3" fill="#C4704B"/>
  <circle cx="24" cy="21" r="2" fill="white" opacity="0.7"/>
</svg>
