<svg width="48" height="48" viewBox="0 0 48 48" fill="none" xmlns="http://www.w3.org/2000/svg">
  <defs>
    <linearGradient id="fg" x1="0" y1="0" x2="48" y2="48" gradientUnits="userSpaceOnUse">
      <stop offset="0%" stop-color="#14b8a6"/>
      <stop offset="50%" stop-color="#3b82f6"/>
      <stop offset="100%" stop-color="#8b5cf6"/>
    </linearGradient>
    <linearGradient id="bg" x1="10" y1="10" x2="38" y2="38" gradientUnits="userSpaceOnUse">
      <stop offset="0%" stop-color="#14b8a6" stop-opacity="0.3"/>
      <stop offset="100%" stop-color="#8b5cf6" stop-opacity="0.1"/>
    </linearGradient>
  </defs>
  <rect x="2" y="2" width="44" height="44" rx="14" fill="url(#bg)" stroke="url(#fg)" stroke-width="1.5"/>
  <g stroke="url(#fg)" stroke-width="1" stroke-linecap="round" opacity="0.5">
    <line x1="14" y1="14" x2="24" y2="20"/>
    <line x1="34" y1="14" x2="24" y2="20"/>
    <line x1="24" y1="20" x2="24" y2="30"/>
    <line x1="24" y1="30" x2="14" y2="36"/>
    <line x1="24" y1="30" x2="34" y2="36"/>
    <line x1="14" y1="14" x2="14" y2="36"/>
    <line x1="34" y1="14" x2="34" y2="36"/>
    <line x1="14" y1="14" x2="34" y2="36"/>
    <line x1="34" y1="14" x2="14" y2="36"/>
  </g>
  <circle cx="14" cy="14" r="3.5" fill="#14b8a6"/>
  <circle cx="34" cy="14" r="3.5" fill="#3b82f6"/>
  <circle cx="24" cy="20" r="4.5" fill="url(#fg)"/>
  <circle cx="24" cy="30" r="4" fill="url(#fg)"/>
  <circle cx="14" cy="36" r="3" fill="#8b5cf6"/>
  <circle cx="34" cy="36" r="3" fill="#14b8a6"/>
  <circle cx="24" cy="20" r="2" fill="white" opacity="0.6"/>
  <circle cx="24" cy="30" r="1.5" fill="white" opacity="0.4"/>
</svg>
